HIERARCHY
ROOT pelvis
{
  OFFSET 0 100 0
  CHANNELS 6 Xposition Yposition Zposition Zrotation Xrotation Yrotation
  JOINT pelvis_right_femur
  {
    OFFSET -10.78128 -3.44521 -0.5502486
    CHANNELS 3 Zrotation Xrotation Yrotation
    JOINT right_femur_tibia
    {
      OFFSET -0.8047443 -44.0398 -0.1307829
      CHANNELS 3 Zrotation Xrotation Yrotation
      JOINT right_tibia_foot
      {
        OFFSET 3.006224 -47.83518 -5
        CHANNELS 3 Zrotation Xrotation Yrotation
        End Site
        {
          OFFSET 0 -5 15
        }
      }
    }
  }
  JOINT pelvis_left_femur
  {
    OFFSET 10.78128 -3.44521 -0.5502486
    CHANNELS 3 Zrotation Xrotation Yrotation
    JOINT left_femur_tibia
    {
      OFFSET 0.8047443 -44.0398 -0.1307829
      CHANNELS 3 Zrotation Xrotation Yrotation
      JOINT left_tibia_foot
      {
        OFFSET -4.370144 -48.10324 -4.275266
        CHANNELS 3 Zrotation Xrotation Yrotation
        End Site
        {
          OFFSET 0 -5 15
        }
      }
    }
  }
  JOINT pelvis_spine1
  {
    OFFSET 0 6.468898 -3.129235
    CHANNELS 3 Zrotation Xrotation Yrotation
    JOINT spine1
    {
      OFFSET 0 23.15396 4.99043
      CHANNELS 3 Zrotation Xrotation Yrotation
      JOINT spine2
      {
        OFFSET 0 20.79997 -5.064912
        CHANNELS 3 Zrotation Xrotation Yrotation
        JOINT neck
        {
          OFFSET 0 14.38658 9.616178
          CHANNELS 3 Zrotation Xrotation Yrotation
          End Site
          {
            OFFSET 0 20 0
          }
        }
      }
      JOINT right_manubrium
      {
        OFFSET -5.722621 16.35077 3.967754
        CHANNELS 3 Zrotation Xrotation Yrotation
        JOINT right_clavicle
        {
          OFFSET -13.16364 1.694482 -4.693211
          CHANNELS 3 Zrotation Xrotation Yrotation
          JOINT right_humerus
          {
            OFFSET -28.5034 -0.3100689 -2.792744
            CHANNELS 3 Zrotation Xrotation Yrotation
            JOINT right_radius
            {
              OFFSET -25.15693 0.02248979 -1.271978
              CHANNELS 3 Zrotation Xrotation Yrotation
              End Site
              {
                OFFSET -15 0 0
              }
            }
          }
        }
      }
      JOINT left_manubrium
      {
        OFFSET 5.722621 16.35077 3.967754
        CHANNELS 3 Zrotation Xrotation Yrotation
        JOINT left_clavicle
        {
          OFFSET 13.16364 1.694482 -4.693211
          CHANNELS 3 Zrotation Xrotation Yrotation
          JOINT left_humerus
          {
            OFFSET 29.39168 -1.063119 -2.237045
            CHANNELS 3 Zrotation Xrotation Yrotation
            JOINT left_radius
            {
              OFFSET 24.59957 -0.9528479 0.9047498
              CHANNELS 3 Zrotation Xrotation Yrotation
              End Site
              {
                OFFSET 15 -0 -0
              }
            }
          }
        }
      }
    }
  }
}
MOTION
Frames: 21
Frame Time: 0.0416666666667
15.91639 100.4897 270.7382 -0.1772008 -2.77851 -4.099104 2.879232 11.94067 6.442915 -0 35.21072 -0 1.791856 -11.20125 -6.680106 0.5077826 -29.21555 -3.42868 -0 28.01848 -0 -6.790958 -8.296021 18.44791 0.5905881 -4.186528 9.134096 -2.260843 11.68745 -2.308601 2.912864 19.25137 4.383569 2.524375 -15.66027 5.453402 2.095251 -22.62315 11.03737 79.08307 17.62022 -2.552846 -0 0 29.28755 -22.12903 9.386874 11.30298 2.067632 -15.53715 -2.238763 -89.01894 21.24532 23.56203 0 0 -13.43597 -3.129531 4.719507 18.56853
16.69706 101.1417 278.0261 -0.1602607 -2.678033 -3.746521 1.93096 9.102552 6.339686 -0 42.8549 -0 1.714192 -10.30637 -6.863456 -0.7486442 -26.19781 -4.737934 -0 29.76594 -0 -6.229105 -8.984081 17.97919 0.4724105 -5.310068 8.85452 -2.321861 11.92062 -2.317085 3.005889 19.70829 4.440851 2.455332 -15.43139 5.70804 2.534637 -21.47724 10.81694 80.05806 17.57097 -4.164636 -0 0 28.03777 -21.85371 9.532358 10.5899 1.815842 -15.30524 -2.281132 -88.43686 21.78307 23.00973 0 0 -13.18159 -3.328706 4.801192 18.88284
17.45977 101.8819 284.814 -0.1363576 -2.516117 -3.183989 2.71093 4.448422 6.055499 -0 50.59851 -0 1.371612 -8.937499 -6.928159 -1.691485 -22.50116 -5.719412 -0 29.84262 -0 -5.387805 -10.80387 17.53891 0.476787 -6.08487 8.185461 -2.453173 12.15572 -2.464008 2.952901 20.26753 4.623721 2.31407 -15.10574 6.005081 3.060833 -20.5017 10.80652 81.02494 17.76066 -5.85865 -0 0 26.25412 -21.28479 9.775819 9.632417 1.479044 -15.44569 -2.473351 -87.4207 22.39643 21.74003 0 0 -13.25042 -3.329467 4.993633 18.88014
18.0738 103.1777 291.061 -0.1240413 -2.414362 -2.829786 2.536169 -2.961859 5.845964 -0 54.8371 -0 1.025657 -9.663318 -7.875866 -2.32458 -17.86075 -6.194421 -0 28.69701 -0 -4.69054 -12.48136 17.18375 0.3591439 -6.633216 7.258551 -2.390885 12.22956 -2.780126 2.700227 20.78513 5.048431 2.058569 -14.94643 6.468944 3.710935 -19.55077 10.82652 82.08479 18.06333 -7.798655 -0 0 24.09899 -20.49906 10.05219 8.468814 1.21501 -15.78452 -2.857684 -86.1803 23.05372 19.84732 0 0 -13.65814 -3.194286 5.296094 18.63863
18.63011 104.5214 296.7865 -0.1026146 -2.218043 -2.160891 2.762618 -8.935011 5.47779 -0 56.71699 -0 1.286038 -8.785172 -8.324516 -2.791993 -13.27826 -6.537272 -0 26.41513 -0 -4.215556 -13.80754 16.80755 0.1077497 -7.112645 6.123383 -2.097221 12.28547 -3.446298 2.580507 21.55165 5.451633 1.902865 -14.50679 6.992589 3.919563 -18.80055 10.63419 82.93818 18.31915 -9.759998 -0 0 22.15687 -19.68318 10.27904 7.289848 1.207482 -16.42376 -3.466862 -84.90612 23.70641 17.43077 0 0 -14.49549 -2.983027 5.673775 18.19125
19.19119 105.5535 302.3586 -0.06575747 -1.831037 -0.8468041 2.626538 -15.12783 5.089243 -0 54.02711 -0 1.290989 -7.889669 -8.957074 -3.309101 -8.002501 -6.613161 -0 23.10922 -0 -3.828116 -15.14944 16.26342 -0.3811543 -7.434698 4.713087 -1.525414 12.18388 -4.755197 2.647592 22.04458 5.704404 1.845651 -14.17013 7.462728 3.656028 -17.92728 10.09017 83.65528 18.42765 -11.95787 -0 0 20.37197 -18.87487 10.39296 6.053472 1.459522 -17.00803 -4.248921 -83.68419 24.34283 14.71842 0 0 -15.69002 -2.741325 6.093437 17.53001
19.7509 105.8316 307.9268 -0.0288757 -1.322217 0.8803869 2.560314 -20.18139 5.109561 -0 47.80038 -0 0.9804554 -6.777064 -9.261386 -3.450213 -3.43105 -6.811294 -0 19.96344 -0 -3.518571 -16.60333 15.46756 -0.7445455 -7.808034 3.574849 -0.8524937 11.91156 -5.999273 2.826082 22.3027 5.793113 1.850578 -13.96243 7.804928 2.974336 -16.88597 9.262782 84.0389 18.40937 -14.32009 -0 0 18.59658 -18.11649 10.4108 4.732616 1.968921 -17.67546 -4.657186 -82.43907 24.87136 11.72583 0 0 -17.41132 -2.419258 6.54315 16.64107
20.21031 105.4248 313.5152 -0.007411941 -0.8487298 2.48811 1.880614 -25.00233 4.942671 -0 38.77555 -0 0.5464678 -6.183122 -9.968642 -3.382684 0.6839679 -6.860678 -0 17.73433 -0 -3.212115 -18.22628 14.63935 -1.063396 -7.985093 2.576854 -0.214717 11.6029 -7.065376 3.006178 22.2968 5.750578 1.85495 -13.96504 7.976791 2.386593 -15.78141 8.465319 84.28384 18.35182 -16.64709 -0 0 16.6341 -17.30592 10.38534 3.234016 2.570523 -18.47919 -4.833145 -81.00485 25.30799 8.625369 0 0 -19.2947 -1.984572 7.032564 15.57135
20.65951 104.4966 319.0083 0.0001100886 -0.5178993 3.61226 0.9176833 -29.04498 4.610833 -0 28.59525 -0 -0.04543798 -5.891167 -10.72262 -3.246633 4.362243 -6.898798 -0 16.58944 -0 -2.962496 -19.93724 13.89167 -1.174304 -7.620271 1.949073 0.238337 11.34137 -7.714645 3.175754 22.34075 5.546264 1.877026 -14.00765 7.921544 1.941419 -14.61433 7.920832 84.59399 18.33017 -18.7536 -0 0 14.47944 -16.37829 10.39697 1.507412 3.136766 -19.45068 -4.686855 -79.50697 25.60993 5.576171 0 0 -21.18681 -1.426917 7.525507 14.39467
20.98865 102.9197 325.08 0.001571694 -0.1539452 4.852774 0.180946 -33.04105 4.531664 -0 21.17073 -0 -0.9589729 -6.485241 -11.33853 -2.985197 7.702725 -6.951215 -0 16.67071 -0 -2.827225 -21.4878 13.3718 -1.123833 -7.844972 1.576321 0.5612871 10.5815 -8.028233 3.436359 22.1245 5.44837 1.920469 -14.47622 8.092901 1.610495 -13.20127 7.539182 85.28712 18.29806 -20.93227 -0 0 12.09476 -15.12137 10.49388 -0.5071911 3.474327 -20.16547 -4.491409 -78.35399 25.87347 3.134262 0 0 -22.50715 -0.8776041 7.962357 13.32973
21.08069 101.7938 330.8971 -0.001031577 0.06477491 5.600028 0.5758961 -34.57494 3.789068 -0 16.62603 -0 -2.113402 -7.497992 -12.25575 -2.580839 10.38893 -6.861099 -0 17.93091 -0 -3.057545 -22.05281 13.13652 -0.888722 -7.405041 1.616279 0.605206 9.870429 -7.621032 3.635619 22.20668 5.268392 1.977363 -14.90381 8.097896 1.87835 -12.53049 7.960397 85.98066 18.35217 -21.98406 -0 0 10.14267 -13.57161 10.66337 -2.633534 3.439127 -21.1679 -4.299704 -77.33176 26.07398 1.14497 0 0 -23.2176 -0.3233439 8.346906 12.39826
21.13586 100.8798 337.4366 -0.006107819 0.2823514 6.345045 1.434207 -33.87126 3.871144 -0 17.40886 -0 -2.931695 -7.624805 -12.81642 -2.096393 12.44386 -6.966265 -0 20.81289 -0 -3.69175 -21.19219 13.27334 -0.5707629 -7.664274 1.386402 0.4676865 9.573878 -7.373828 3.63338 22.34634 5.186177 1.965483 -15.32415 8.036923 2.076251 -11.36254 8.065674 87.07978 18.19002 -23.0353 -0 0 8.561414 -12.12656 10.81381 -4.233604 3.418553 -21.52527 -3.920361 -76.98989 26.30362 0.359901 0 0 -23.18165 0.1424344 8.665101 11.71198
21.10726 100.2933 344.6583 -0.01337372 0.4908911 7.060166 2.705333 -32.44484 4.928946 -0 20.59929 -0 -3.282431 -6.758931 -12.66091 -1.606442 13.50199 -7.10951 -0 25.77205 -0 -4.647989 -18.67093 14.10824 -0.2047126 -8.676673 1.094432 0.1251205 9.347728 -7.187925 3.431294 22.58731 5.219832 1.872756 -15.68564 7.943839 2.168301 -10.37745 8.014816 88.14701 17.90137 -23.41561 -0 0 7.983811 -10.82231 10.93143 -5.372203 3.40891 -21.1803 -3.427192 -77.38929 26.59961 0.8233156 0 0 -22.31968 0.4626426 8.906812 11.33821
21.05387 100.4647 352.1297 -0.01565331 0.5474726 7.254517 3.062342 -30.60364 6.418215 -0 24.7629 -0 -3.948306 -6.890589 -12.2189 -1.514022 12.91296 -6.839526 -0 33.26149 -0 -5.716686 -14.78007 15.96273 0.1874959 -9.822829 1.066231 -0.1582005 9.294963 -7.039586 3.124974 22.94274 5.286171 1.729943 -16.0799 7.809783 2.405215 -9.652515 7.868874 88.78401 17.58844 -23.1944 -0 0 8.120215 -9.7724 10.98735 -6.116177 3.201708 -20.43883 -2.903441 -78.40997 26.93995 2.270653 0 0 -20.68945 0.5970628 9.081001 11.2433
21.09474 101.2145 359.6588 -0.002861569 0.1697517 5.959894 4.820386 -27.41069 6.904835 -0 27.00631 -0 -4.446617 -8.678499 -12.7475 -1.027792 9.093215 -6.135594 -0 42.32956 -0 -5.987297 -11.84041 19.31527 0.6738958 -10.76802 1.698886 -0.4075071 9.516791 -6.536783 2.860788 23.42934 5.274593 1.609509 -16.54774 7.621863 2.456701 -9.545152 7.994398 88.34868 17.46506 -22.05805 -0 0 8.930505 -8.917612 11.00273 -6.689902 2.883973 -19.34802 -2.42316 -79.98013 27.31389 4.450774 0 0 -18.46295 0.5189337 9.203261 11.38839
20.95117 101.8266 366.1283 -0.0009800204 0.07172022 5.624047 5.591452 -24.4529 7.503567 -0 27.73091 -0 -4.965367 -10.88452 -12.9754 -1.979949 3.592908 -3.954078 -0 51.02235 -0 -6.508512 -8.821328 22.78438 0.7449161 -11.52571 2.291873 -0.3206074 9.404689 -6.348766 2.867212 23.9864 4.962315 1.635086 -16.97949 7.268859 2.649303 -10.23369 8.169525 87.32376 17.38192 -20.18677 -0 0 10.30957 -8.581287 10.955 -7.04145 2.536177 -18.45396 -2.359701 -81.65556 27.68749 6.406016 0 0 -16.13334 0.2728738 9.296625 11.64374
20.95642 103.1957 372.1649 0.001073061 -0.1716417 4.791375 5.938984 -20.00888 7.620622 -0 27.09129 -0 -5.204978 -12.59554 -12.74009 -1.811688 -4.179293 -2.753234 -0 56.43407 -0 -6.063018 -7.288649 25.72121 0.6970156 -11.5393 3.207756 -0.1986671 9.39516 -5.946356 3.030212 24.72808 4.652797 1.740867 -17.30751 7.069304 2.872256 -11.18644 8.207588 86.1686 17.12072 -17.74009 -0 0 12.29346 -8.771859 10.82694 -7.075275 2.207265 -17.78496 -2.205429 -83.54342 27.96752 8.518296 0 0 -13.84645 -0.03812062 9.385384 11.92298
21.03863 104.5911 377.7181 -0.002080458 -0.5152834 3.617231 5.934876 -14.9032 7.238413 -0 24.87558 -0 -5.283318 -13.8472 -12.11437 -1.720898 -11.11654 -2.137837 -0 58.60261 -0 -5.420943 -6.287512 27.3039 0.7091614 -11.264 4.017529 -0.1030135 9.341531 -5.439482 3.080174 25.48168 4.413601 1.769828 -17.51891 6.872797 2.879515 -12.29284 8.190833 84.89041 16.81523 -15.05556 -0 0 14.29454 -9.125611 10.66168 -6.984219 2.214396 -17.20169 -1.935515 -85.5137 28.06786 10.70153 0 0 -11.9517 -0.2910476 9.479324 12.07159
21.06258 105.5845 382.957 -0.007107392 -0.7137546 2.940518 5.713284 -9.880431 6.311772 -0 21.89794 -0 -5.41084 -14.94434 -11.23673 -1.377516 -17.47656 -1.58201 -0 54.76235 -0 -4.768647 -6.512764 28.08332 0.998148 -9.943187 5.385874 -0.1162461 9.21316 -3.915638 3.145912 25.33347 4.055533 1.752565 -18.20564 6.541639 2.916774 -12.52238 9.336661 83.93003 16.68147 -12.89119 -0 0 14.54959 -9.343738 10.49681 -7.166951 2.445588 -17.21712 -1.833936 -87.17353 27.99786 12.46719 0 0 -10.5742 -0.3905286 9.569288 11.99876
21.10276 106.0096 387.8709 -0.01817334 -0.9926497 1.988839 5.388284 -4.916056 4.871693 -0 18.97118 -0 -5.736967 -16.05077 -10.17665 -0.7120244 -21.51716 -1.243137 -0 47.67991 -0 -4.108032 -7.731206 28.31337 0.9622124 -8.329029 6.093325 -0.3241093 8.558468 -2.782187 3.1459 25.27652 3.844257 1.697109 -18.81568 6.349908 2.824698 -14.30872 10.24901 82.38983 16.64749 -9.375704 -0 0 16.41858 -10.21229 10.57188 -6.021879 2.773282 -17.09476 -1.662455 -88.59163 27.75211 14.39779 0 0 -9.240118 -0.3333421 9.617894 11.77438
21.32149 105.6693 393.0666 -0.03456012 -1.27886 1.011864 5.154282 0.2939491 3.53403 -0 17.51842 -0 -6.307586 -17.14367 -9.193867 0.4826498 -24.98195 -1.200374 -0 37.37499 -0 -3.796581 -8.436404 28.35242 0.9469402 -7.176645 6.305351 -0.3811167 7.932031 -2.168439 2.872231 25.35466 3.953772 1.504392 -19.31558 6.339238 2.592066 -16.6153 10.4355 80.56049 16.60276 -5.656732 -0 0 19.00879 -11.54275 10.79882 -3.990775 3.24795 -16.54175 -1.264762 -90.0139 27.37424 16.63476 0 0 -7.793517 -0.1269297 9.658042 11.50899
